<svg version="1" xmlns="http://www.w3.org/2000/svg" width="933.333" height="933.333" viewBox="0 0 700.000000 700.000000"><path d="M558 350v294h19V56h-19v294zM138 118v18.9l64.3.3c53.2.3 64.7.5 66.1 1.7 1.4 1.2 1.6 3.6 1.4 19.4l-.3 18.1-2.5.7c-1.4.4-23 .8-48 .8-48.5.1-53.6.6-63.4 5.2-6.2 2.9-11.2 8-14.5 14.9l-2.6 5.5-.3 45.7-.3 45.8H308v-38H176v-39l2.6-1c1.5-.6 20.1-1 45.9-1 43.7 0 55.1-.7 62.9-3.7 10-4 16.2-10.5 19.2-20.2 1.8-6 2-60.7.2-67.9-2.1-8.6-7.7-15.6-15.7-19.6-10.6-5.4-13.5-5.6-86.2-5.6H138v19zm222.8-17.6c-13.1 2.9-22.9 10.7-26.5 20.9-1.7 4.8-1.8 10.3-1.8 75.7s.1 70.9 1.8 75.7c3.6 10.4 13.4 18 27 20.9 9.6 2.1 101.9 2 111.9-.1 13.6-2.9 21.6-8.5 26.2-18.4 2-4.3 2.1-6.5 2.4-36.6.3-34 0-37.6-4.4-44.6-3.2-5.2-9.9-10.6-16-12.9-9-3.3-20.2-4-66.6-4H370v-18.4c0-15.8.2-18.5 1.7-19.7 1.3-1.2 13.2-1.5 66-1.7l64.3-.3V99l-67.7.1c-50 .1-69.3.4-73.5 1.3zm99.5 115.7l3.7 1-.2 19.2-.3 19.2-4 .7c-6.5 1.1-81.5.9-85.7-.3l-3.8-1V215h43.3c27 0 44.6.4 47 1.1z"/></svg>